<svg xmlns="http://www.w3.org/2000/svg" viewBox="0 0 96 96" role="img" aria-labelledby="title desc">
  <title id="title">Clinical Shield mark</title>
  <desc id="desc">Знак в форме мягкого защитного поля с M, линией пульса и точкой биообразца.</desc>
  <defs>
    <linearGradient id="shield-g" x1="20" y1="14" x2="78" y2="84" gradientUnits="userSpaceOnUse">
      <stop offset="0" stop-color="#23D3C3"/>
      <stop offset=".5" stop-color="#19C7D4"/>
      <stop offset="1" stop-color="#1D6FD6"/>
    </linearGradient>
  </defs>
  <rect x="6" y="6" width="84" height="84" rx="22" fill="#071827"/>
  <path d="M48 14c12.5 8.2 24.2 8.8 32 11v21.6c0 18.6-12.2 31.7-32 40.4-19.8-8.7-32-21.8-32-40.4V25c7.8-2.2 19.5-2.8 32-11Z" fill="none" stroke="url(#shield-g)" stroke-width="5.5" stroke-linejoin="round"/>
  <path d="M26 60 36 37l12 25 11-23 9 19" fill="none" stroke="#FFFFFF" stroke-width="4" stroke-linecap="round" stroke-linejoin="round"/>
  <path d="M24 51h12l4-8 7 17 5-9h20" fill="none" stroke="#23D3C3" stroke-width="3.2" stroke-linecap="round" stroke-linejoin="round"/>
  <circle cx="70" cy="51" r="4.8" fill="#4ED6A3"/>
</svg>
